<?xml version="1.0" encoding="utf-8"?>
<!-- Generator: Adobe Illustrator 25.2.0, SVG Export Plug-In . SVG Version: 6.00 Build 0)  -->
<svg version="1.1" id="Layer_1" xmlns="http://www.w3.org/2000/svg" xmlns:xlink="http://www.w3.org/1999/xlink" x="0px" y="0px"
	 viewBox="0 0 669.4 130" style="enable-background:new 0 0 669.4 130;" xml:space="preserve">
<style type="text/css">
	.st0{fill:#FFFFFF;}
	.st1{clip-path:url(#SVGID_2_);fill:#FFFFFF;}
</style>
<polygon class="st0" points="0,3.8 0,125.5 19.5,125.5 19.5,71 65.9,71 65.9,54 19.5,54 19.5,20.8 70.6,20.8 70.6,3.8 "/>
<g>
	<defs>
		<rect id="SVGID_1_" width="669.4" height="130"/>
	</defs>
	<clipPath id="SVGID_2_">
		<use xlink:href="#SVGID_1_"  style="overflow:visible;"/>
	</clipPath>
	<path class="st1" d="M153,125.5h-19.5v-3.9c-6,4.7-13.3,7-20.8,7c-19.1,0-39.3-14.6-39.3-39.6c0-25,20.1-39.6,39.3-39.6
		c7.5,0,14.8,2.3,20.8,7v-3.9H153V125.5z M113.3,66.3C102.1,66.3,93,76.5,93,89c0,12.5,9.1,22.7,20.3,22.7
		c11.2,0,20.3-10.2,20.3-22.7C133.5,76.5,124.5,66.3,113.3,66.3"/>
	<path class="st1" d="M219.1,75.7c-2.8-7.1-9.7-10.5-15.9-10.5c-5.7,0-10.5,2.9-10.5,8.1c0,2.9,1.9,4.9,6,5.8l14.3,3.1
		c10.5,2.4,21.7,6.8,21.7,22.1c0,16.1-15.1,24.7-30.7,24.7c-14.1,0-28.6-7.1-33.1-21.7l15.6-5.7c3.4,7.8,10.9,11.2,17.4,11.2
		c6.3,0,12-3.2,12-8.8c0-2.6-1.9-4.4-6-5.4l-14.3-3.1c-10.5-2.3-21.4-7.1-21.4-22.4c0-15.9,14.1-23.9,29-23.9
		c13.3,0,27.1,6.5,31.5,19.6L219.1,75.7z"/>
	<path class="st1" d="M322.3,125.5h-19.5V80.2c0-7.8-6-13.5-14.6-13.5c-9.1,0-16.2,7.1-16.2,15.3v43.5h-19.5V3.8H272v52.4
		c4.9-5.2,11.8-7,18.3-7c16.1,0,32,11.8,32,30.2V125.5z"/>
	<polygon class="st1" points="439.1,20.8 388,20.8 388,54 434.4,54 434.4,71 388,71 388,125.5 368.5,125.5 368.5,3.8 439.1,3.8 	"/>
	<path class="st1" d="M520.7,97.3H463c2.9,8.4,10.2,14.4,18.8,14.4c6,0,11.3-2.8,14.9-7.4c0.4,0,15.7,10.1,15.8,10
		c-7.2,8.8-18.3,14.5-30.7,14.5c-21.9,0-39.8-17.8-39.8-39.8c0-21.9,17.8-39.8,39.8-39.8c21.9,0,39.8,17.8,39.8,39.8
		C521.5,91.9,521.2,94.7,520.7,97.3 M500.4,80.2c-3.1-8.1-10.2-14-18.7-14c-8.4,0-15.6,5.7-18.7,14H500.4z"/>
	<path class="st1" d="M612.4,125.5h-19.5v-3.9c-6,4.7-13.3,7-20.8,7c-19.1,0-39.3-14.6-39.3-39.6c0-25,20.1-39.6,39.3-39.6
		c7.5,0,14.8,2.3,20.8,7V3.8h19.5V125.5z M572.7,66.3c-11.2,0-20.3,10.2-20.3,22.7c0,12.5,9.1,22.7,20.3,22.7
		c11.2,0,20.3-10.2,20.3-22.7C592.9,76.5,583.8,66.3,572.7,66.3"/>
	<path class="st1" d="M669.4,112.3c0,9.8-7.9,17.7-17.7,17.7c-9.8,0-17.7-7.9-17.7-17.7s7.9-17.7,17.7-17.7
		C661.4,94.5,669.4,102.5,669.4,112.3"/>
	<path class="st1" d="M347.1,17.7c0-9.8-7.9-17.7-17.7-17.7c-9.8,0-17.7,7.9-17.7,17.7s7.9,17.7,17.7,17.7
		C339.2,35.5,347.1,27.5,347.1,17.7"/>
</g>
</svg>
